<?xml version="1.0" encoding="UTF-8"?>
<!DOCTYPE svg PUBLIC "-//W3C//DTD SVG 1.1//EN" "http://www.w3.org/Graphics/SVG/1.1/DTD/svg11.dtd">
<svg xmlns="http://www.w3.org/2000/svg" version="1.1" width="368px" height="806px" style="shape-rendering:geometricPrecision; text-rendering:geometricPrecision; image-rendering:optimizeQuality; fill-rule:evenodd; clip-rule:evenodd" xmlns:xlink="http://www.w3.org/1999/xlink">
<g><path style="opacity:1" fill="#f9fafa" d="M 3.5,-0.5 C 123.5,-0.5 243.5,-0.5 363.5,-0.5C 363.506,98.2926 363.506,197.293 363.5,296.5C 352.922,273.485 334.756,261.819 309,261.5C 296.717,261.816 285.217,264.983 274.5,271C 267.646,274.592 261.313,278.925 255.5,284C 246.464,292.704 237.131,301.038 227.5,309C 213.431,316.614 198.431,319.614 182.5,318C 167.768,316.484 153.768,312.484 140.5,306C 128.323,299.411 115.99,293.078 103.5,287C 82.717,277.888 61.717,277.222 40.5,285C 30.4283,290.572 22.0949,298.072 15.5,307.5C 10.1505,315.551 6.15048,324.217 3.5,333.5C 3.5,296.833 3.5,260.167 3.5,223.5C 6.31826,225.979 8.31826,228.979 9.5,232.5C 11.2624,232.357 12.9291,232.691 14.5,233.5C 15.8149,231.684 17.3149,230.017 19,228.5C 19.3333,228.833 19.6667,229.167 20,229.5C 20.4922,228.451 20.3256,227.451 19.5,226.5C 19.8076,225.692 20.3076,225.025 21,224.5C 25.3547,226.846 28.188,230.346 29.5,235C 30.938,235.219 32.2713,235.719 33.5,236.5C 32.0045,238.843 32.6712,240.176 35.5,240.5C 37.5844,237.854 39.251,238.021 40.5,241C 44.4918,242.177 46.1584,240.677 45.5,236.5C 48.2431,236.923 49.5765,235.756 49.5,233C 49.1557,231.635 48.4891,230.468 47.5,229.5C 50.0443,227.389 50.0443,225.222 47.5,223C 45.4787,222.86 43.6453,222.693 42,222.5C 41.5348,221.069 40.7014,219.903 39.5,219C 41.3937,217.921 41.727,216.587 40.5,215C 41.4491,214.383 42.2825,214.549 43,215.5C 43.8333,214.667 44.6667,213.833 45.5,213C 50.0054,213.057 53.8387,211.557 57,208.5C 58.9244,201.287 60.0911,193.953 60.5,186.5C 58.8333,186.5 57.1667,186.5 55.5,186.5C 56.1449,181.685 54.3115,180.019 50,181.5C 45.9006,178.277 43.5673,179.277 43,184.5C 41.6043,182.473 39.9376,182.14 38,183.5C 37.829,188.533 37.329,193.533 36.5,198.5C 30.3545,193.829 28.5212,195.162 31,202.5C 36.5389,205.759 36.8723,209.426 32,213.5C 30.4922,209.326 28.1588,208.659 25,211.5C 24.2503,214.493 25.4169,216.327 28.5,217C 26,218.167 24.1667,220 23,222.5C 21.881,217.761 19.381,213.928 15.5,211C 23.466,204.128 23.466,197.295 15.5,190.5C 15.7093,189.914 16.0426,189.414 16.5,189C 14.4259,189.227 12.4259,189.061 10.5,188.5C 9.28882,189.274 9.28882,190.107 10.5,191C 7.93337,193.396 5.60004,195.896 3.5,198.5C 3.5,132.5 3.5,66.5 3.5,0.5C 3.5,0.166667 3.5,-0.166667 3.5,-0.5 Z"/></g>
<g><path style="opacity:1" fill="#fcfdfd" d="M 45.5,1.5 C 45.56,0.956913 45.8933,0.62358 46.5,0.5C 47.1667,5.5 47.8333,10.5 48.5,15.5C 49.086,15.2907 49.586,14.9574 50,14.5C 50.4988,10.5138 50.6655,6.51383 50.5,2.5C 51.5,2.5 52.5,2.5 53.5,2.5C 53.1744,6.88387 53.5078,11.2172 54.5,15.5C 55.3818,12.6805 56.5485,10.0138 58,7.5C 58.1571,13.8892 57.4904,20.2225 56,26.5C 51.8445,31.6697 46.6779,32.8363 40.5,30C 37.8084,27.4428 35.475,24.6095 33.5,21.5C 35.4012,20.7691 37.4012,20.7691 39.5,21.5C 39.3354,18.4816 39.502,15.4816 40,12.5C 41.3139,13.3128 42.4805,14.3128 43.5,15.5C 44.086,15.2907 44.586,14.9574 45,14.5C 45.3729,12.3018 45.8729,10.1351 46.5,8C 45.777,5.66062 45.4437,3.49395 45.5,1.5 Z"/></g>
<g><path style="opacity:0.04" fill="#070707" d="M 3.5,0.5 C 3.5,66.5 3.5,132.5 3.5,198.5C 3.5,206.833 3.5,215.167 3.5,223.5C 3.5,260.167 3.5,296.833 3.5,333.5C 3.5,335.833 3.5,338.167 3.5,340.5C 2.5,340.5 1.5,340.5 0.5,340.5C 0.737305,339.209 0.403972,338.209 -0.5,337.5C -0.5,334.167 -0.5,330.833 -0.5,327.5C 0.833333,327.167 0.833333,326.833 -0.5,326.5C -0.5,323.833 -0.5,321.167 -0.5,318.5C 0.833333,318.167 0.833333,317.833 -0.5,317.5C -0.5,317.167 -0.5,316.833 -0.5,316.5C 0.833333,316.167 0.833333,315.833 -0.5,315.5C -0.5,312.167 -0.5,308.833 -0.5,305.5C 0.833333,305.167 0.833333,304.833 -0.5,304.5C -0.5,298.5 -0.5,292.5 -0.5,286.5C 0.833333,286.167 0.833333,285.833 -0.5,285.5C -0.5,276.167 -0.5,266.833 -0.5,257.5C 0.833333,257.167 0.833333,256.833 -0.5,256.5C -0.5,253.833 -0.5,251.167 -0.5,248.5C 0.833333,247.167 0.833333,245.833 -0.5,244.5C -0.5,238.5 -0.5,232.5 -0.5,226.5C 0.833333,226.167 0.833333,225.833 -0.5,225.5C -0.5,212.833 -0.5,200.167 -0.5,187.5C 0.833333,187.167 0.833333,186.833 -0.5,186.5C -0.5,182.5 -0.5,178.5 -0.5,174.5C 0.833333,174.167 0.833333,173.833 -0.5,173.5C -0.5,172.167 -0.5,170.833 -0.5,169.5C 0.833333,169.167 0.833333,168.833 -0.5,168.5C -0.5,166.833 -0.5,165.167 -0.5,163.5C 0.833333,163.167 0.833333,162.833 -0.5,162.5C -0.5,161.833 -0.5,161.167 -0.5,160.5C 0.833333,160.167 0.833333,159.833 -0.5,159.5C -0.5,157.167 -0.5,154.833 -0.5,152.5C 0.833333,152.167 0.833333,151.833 -0.5,151.5C -0.5,151.167 -0.5,150.833 -0.5,150.5C 0.833333,150.167 0.833333,149.833 -0.5,149.5C -0.5,148.833 -0.5,148.167 -0.5,147.5C 0.833333,147.167 0.833333,146.833 -0.5,146.5C -0.5,145.5 -0.5,144.5 -0.5,143.5C 0.833333,143.167 0.833333,142.833 -0.5,142.5C -0.5,142.167 -0.5,141.833 -0.5,141.5C 0.833333,141.167 0.833333,140.833 -0.5,140.5C -0.5,138.167 -0.5,135.833 -0.5,133.5C 0.833333,133.167 0.833333,132.833 -0.5,132.5C -0.5,131.833 -0.5,131.167 -0.5,130.5C 0.833333,130.167 0.833333,129.833 -0.5,129.5C -0.5,126.833 -0.5,124.167 -0.5,121.5C 0.833333,121.167 0.833333,120.833 -0.5,120.5C -0.5,119.833 -0.5,119.167 -0.5,118.5C 0.833333,118.167 0.833333,117.833 -0.5,117.5C -0.5,115.833 -0.5,114.167 -0.5,112.5C 0.833333,112.167 0.833333,111.833 -0.5,111.5C -0.5,111.167 -0.5,110.833 -0.5,110.5C 0.833333,109.833 0.833333,109.167 -0.5,108.5C -0.5,106.167 -0.5,103.833 -0.5,101.5C 0.833333,101.167 0.833333,100.833 -0.5,100.5C -0.5,98.8333 -0.5,97.1667 -0.5,95.5C 0.833333,95.1667 0.833333,94.8333 -0.5,94.5C -0.5,93.5 -0.5,92.5 -0.5,91.5C 0.833333,91.1667 0.833333,90.8333 -0.5,90.5C -0.5,89.1667 -0.5,87.8333 -0.5,86.5C 0.833333,86.1667 0.833333,85.8333 -0.5,85.5C -0.5,80.8333 -0.5,76.1667 -0.5,71.5C 0.833333,71.1667 0.833333,70.8333 -0.5,70.5C -0.5,67.8333 -0.5,65.1667 -0.5,62.5C 0.833333,62.1667 0.833333,61.8333 -0.5,61.5C -0.5,61.1667 -0.5,60.8333 -0.5,60.5C 0.833333,60.1667 0.833333,59.8333 -0.5,59.5C -0.5,56.1667 -0.5,52.8333 -0.5,49.5C 0.833333,49.1667 0.833333,48.8333 -0.5,48.5C -0.5,42.5 -0.5,36.5 -0.5,30.5C 0.833333,30.1667 0.833333,29.8333 -0.5,29.5C -0.5,21.5 -0.5,13.5 -0.5,5.5C 0.132443,3.25741 1.46578,1.59074 3.5,0.5 Z"/></g>
<g><path style="opacity:1" fill="#edf0f2" d="M 254.5,27.5 C 259.884,26.9061 264.55,28.4061 268.5,32C 268.167,32.1667 267.833,32.3333 267.5,32.5C 265.669,31.0706 263.669,30.5706 261.5,31C 263.155,32.4443 263.822,34.2776 263.5,36.5C 261.833,36.5 260.167,36.5 258.5,36.5C 258.5,38.5 258.5,40.5 258.5,42.5C 260.5,42.5 262.5,42.5 264.5,42.5C 264.833,37.1667 265.167,37.1667 265.5,42.5C 267.5,42.5 269.5,42.5 271.5,42.5C 271.215,40.712 271.548,39.0453 272.5,37.5C 274.988,47.5045 271.321,54.0045 261.5,57C 246.552,58.3297 240.386,51.4963 243,36.5C 243.423,35.0439 244.256,34.5439 245.5,35C 244.133,37.3015 243.466,39.8015 243.5,42.5C 251.394,42.5267 251.394,43.1934 243.5,44.5C 244.023,46.9329 245.19,48.9329 247,50.5C 249.968,48.9217 253.135,48.255 256.5,48.5C 256.5,46.8333 256.5,45.1667 256.5,43.5C 248.5,43.1667 248.5,42.8333 256.5,42.5C 256.5,40.1667 256.5,37.8333 256.5,35.5C 253.518,35.0371 250.518,34.7038 247.5,34.5C 248.16,30.5063 250.494,28.1729 254.5,27.5 Z"/></g>
<g><path style="opacity:1" fill="#f1f2f3" d="M 272.5,86.5 C 273.434,87.5676 273.768,88.901 273.5,90.5C 277.971,90.6724 278.304,91.5057 274.5,93C 276.821,99.353 275.154,104.353 269.5,108C 265.425,108.518 261.425,108.518 257.5,108C 259.445,113.896 258.445,119.229 254.5,124C 250.961,125.504 247.295,125.837 243.5,125C 244.167,124 244.833,123 245.5,122C 243.333,119.833 241.167,117.667 239,115.5C 239,118.167 239,120.833 239,123.5C 238.667,123.833 238.333,124.167 238,124.5C 236.933,123.809 235.766,123.309 234.5,123C 235.448,122.517 236.448,122.351 237.5,122.5C 237.335,119.15 237.502,115.817 238,112.5C 238.273,110.671 239.107,109.171 240.5,108C 238.444,107.689 236.444,107.189 234.5,106.5C 230.456,109.543 227.123,113.209 224.5,117.5C 220.555,118.491 216.555,118.824 212.5,118.5C 212.5,119.5 212.5,120.5 212.5,121.5C 215.585,121.542 217.919,122.875 219.5,125.5C 212.167,126.833 204.833,126.833 197.5,125.5C 199.5,123.833 201.5,122.167 203.5,120.5C 200.215,119.676 196.882,119.176 193.5,119C 192.549,118.282 192.383,117.449 193,116.5C 202.417,117.485 211.917,117.818 221.5,117.5C 223.36,109.718 224.026,101.718 223.5,93.5C 213.494,93.3335 203.494,93.5002 193.5,94C 192.685,101.087 192.185,108.253 192,115.5C 191.333,108.167 191.333,100.833 192,93.5C 193.067,92.8095 194.234,92.3095 195.5,92C 204.833,91.3333 214.167,91.3333 223.5,92C 224,92.5 224.5,93 225,93.5C 225.333,99.1667 225.667,104.833 226,110.5C 228.537,107.628 231.37,105.128 234.5,103C 231.418,99.4184 232.085,96.9184 236.5,95.5C 240.597,96.6223 241.43,98.9557 239,102.5C 234.832,103.336 234.665,104.336 238.5,105.5C 243.714,105.219 249.048,104.886 254.5,104.5C 252.856,90.483 258.856,85.483 272.5,89.5C 272.5,88.5 272.5,87.5 272.5,86.5 Z"/></g>
<g><path style="opacity:0.044" fill="#151515" d="M 363.5,-0.5 C 364.167,-0.5 364.833,-0.5 365.5,-0.5C 365.833,0.5 366.5,1.16667 367.5,1.5C 367.5,3.83333 367.5,6.16667 367.5,8.5C 366.167,8.83333 366.167,9.16667 367.5,9.5C 367.5,11.8333 367.5,14.1667 367.5,16.5C 366.167,16.8333 366.167,17.1667 367.5,17.5C 367.5,23.5 367.5,29.5 367.5,35.5C 366.167,35.8333 366.167,36.1667 367.5,36.5C 367.5,36.8333 367.5,37.1667 367.5,37.5C 366.167,37.8333 366.167,38.1667 367.5,38.5C 367.5,47.1667 367.5,55.8333 367.5,64.5C 366.167,64.8333 366.167,65.1667 367.5,65.5C 367.5,73.5 367.5,81.5 367.5,89.5C 366.167,89.8333 366.167,90.1667 367.5,90.5C 367.5,92.8333 367.5,95.1667 367.5,97.5C 366.167,97.8333 366.167,98.1667 367.5,98.5C 367.5,99.8333 367.5,101.167 367.5,102.5C 366.167,102.833 366.167,103.167 367.5,103.5C 367.5,115.5 367.5,127.5 367.5,139.5C 366.167,139.833 366.167,140.167 367.5,140.5C 367.5,141.5 367.5,142.5 367.5,143.5C 366.167,143.833 366.167,144.167 367.5,144.5C 367.5,145.167 367.5,145.833 367.5,146.5C 366.167,146.833 366.167,147.167 367.5,147.5C 367.5,148.167 367.5,148.833 367.5,149.5C 366.167,149.833 366.167,150.167 367.5,150.5C 367.5,154.167 367.5,157.833 367.5,161.5C 366.167,161.833 366.167,162.167 367.5,162.5C 367.5,166.5 367.5,170.5 367.5,174.5C 366.167,174.833 366.167,175.167 367.5,175.5C 367.5,180.833 367.5,186.167 367.5,191.5C 366.167,191.833 366.167,192.167 367.5,192.5C 367.5,194.5 367.5,196.5 367.5,198.5C 366.167,198.833 366.167,199.167 367.5,199.5C 367.5,200.167 367.5,200.833 367.5,201.5C 366.167,201.833 366.167,202.167 367.5,202.5C 367.5,204.5 367.5,206.5 367.5,208.5C 366.167,208.833 366.167,209.167 367.5,209.5C 367.5,211.833 367.5,214.167 367.5,216.5C 366.167,216.833 366.167,217.167 367.5,217.5C 367.5,218.167 367.5,218.833 367.5,219.5C 366.167,219.833 366.167,220.167 367.5,220.5C 367.5,222.167 367.5,223.833 367.5,225.5C 366.167,225.833 366.167,226.167 367.5,226.5C 367.5,227.167 367.5,227.833 367.5,228.5C 366.167,228.833 366.167,229.167 367.5,229.5C 367.5,233.167 367.5,236.833 367.5,240.5C 366.167,241.167 366.167,241.833 367.5,242.5C 367.5,246.833 367.5,251.167 367.5,255.5C 366.167,255.833 366.167,256.167 367.5,256.5C 367.5,259.167 367.5,261.833 367.5,264.5C 366.167,264.833 366.167,265.167 367.5,265.5C 367.5,267.833 367.5,270.167 367.5,272.5C 366.167,272.833 366.167,273.167 367.5,273.5C 367.5,279.5 367.5,285.5 367.5,291.5C 366.167,291.833 366.167,292.167 367.5,292.5C 367.5,292.833 367.5,293.167 367.5,293.5C 366.167,293.833 366.167,294.167 367.5,294.5C 367.5,296.167 367.5,297.833 367.5,299.5C 366.167,299.833 366.167,300.167 367.5,300.5C 367.5,301.167 367.5,301.833 367.5,302.5C 365.908,301.398 365.075,302.065 365,304.5C 364.617,303.944 364.117,303.611 363.5,303.5C 363.5,301.833 363.5,300.167 363.5,298.5C 363.5,297.833 363.5,297.167 363.5,296.5C 363.506,197.293 363.506,98.2926 363.5,-0.5 Z"/></g>
<g><path style="opacity:1" fill="#f2f3f4" d="M 3.5,223.5 C 3.5,215.167 3.5,206.833 3.5,198.5C 5.60004,195.896 7.93337,193.396 10.5,191C 9.28882,190.107 9.28882,189.274 10.5,188.5C 12.4259,189.061 14.4259,189.227 16.5,189C 16.0426,189.414 15.7093,189.914 15.5,190.5C 23.466,197.295 23.466,204.128 15.5,211C 19.381,213.928 21.881,217.761 23,222.5C 24.1667,220 26,218.167 28.5,217C 25.4169,216.327 24.2503,214.493 25,211.5C 28.1588,208.659 30.4922,209.326 32,213.5C 36.8723,209.426 36.5389,205.759 31,202.5C 28.5212,195.162 30.3545,193.829 36.5,198.5C 37.329,193.533 37.829,188.533 38,183.5C 39.9376,182.14 41.6043,182.473 43,184.5C 43.5673,179.277 45.9006,178.277 50,181.5C 54.3115,180.019 56.1449,181.685 55.5,186.5C 57.1667,186.5 58.8333,186.5 60.5,186.5C 60.0911,193.953 58.9244,201.287 57,208.5C 53.8387,211.557 50.0054,213.057 45.5,213C 44.6667,213.833 43.8333,214.667 43,215.5C 42.2825,214.549 41.4491,214.383 40.5,215C 41.727,216.587 41.3937,217.921 39.5,219C 40.7014,219.903 41.5348,221.069 42,222.5C 43.6453,222.693 45.4787,222.86 47.5,223C 50.0443,225.222 50.0443,227.389 47.5,229.5C 48.4891,230.468 49.1557,231.635 49.5,233C 49.5765,235.756 48.2431,236.923 45.5,236.5C 46.1584,240.677 44.4918,242.177 40.5,241C 39.251,238.021 37.5844,237.854 35.5,240.5C 32.6712,240.176 32.0045,238.843 33.5,236.5C 32.2713,235.719 30.938,235.219 29.5,235C 28.188,230.346 25.3547,226.846 21,224.5C 20.3076,225.025 19.8076,225.692 19.5,226.5C 20.3256,227.451 20.4922,228.451 20,229.5C 19.6667,229.167 19.3333,228.833 19,228.5C 17.3149,230.017 15.8149,231.684 14.5,233.5C 12.9291,232.691 11.2624,232.357 9.5,232.5C 8.31826,228.979 6.31826,225.979 3.5,223.5 Z"/></g>
<g><path style="opacity:1" fill="#f1f2f3" d="M 250.5,193.5 C 256.04,193.528 257.707,196.028 255.5,201C 252.671,201.048 250.337,202.048 248.5,204C 251.167,205.667 251.167,207.333 248.5,209C 253.782,208.495 259.116,208.495 264.5,209C 275.269,216.491 276.269,225.158 267.5,235C 259.368,240.213 251.868,239.38 245,232.5C 242.867,228.768 241.534,224.768 241,220.5C 237.64,223.86 234.306,227.194 231,230.5C 230.163,228.993 228.996,228.493 227.5,229C 229.229,230.789 229.896,232.956 229.5,235.5C 228.127,235.657 226.793,235.49 225.5,235C 226.428,234.612 227.095,233.945 227.5,233C 225.566,231.046 225.233,228.88 226.5,226.5C 224.922,225.702 223.256,225.202 221.5,225C 220.663,223.989 220.33,222.822 220.5,221.5C 219.5,221.5 218.5,221.5 217.5,221.5C 217.716,226.587 215.882,227.587 212,224.5C 211.5,225 211,225.5 210.5,226C 211.574,226.739 212.241,227.739 212.5,229C 211.711,230.626 210.711,232.126 209.5,233.5C 211.045,234.452 212.712,234.785 214.5,234.5C 214.178,239.874 215.512,240.541 218.5,236.5C 216.38,235.043 215.047,233.043 214.5,230.5C 214.785,228.431 215.952,227.098 218,226.5C 219.814,227.851 219.481,228.851 217,229.5C 216.51,230.793 216.343,232.127 216.5,233.5C 218.527,233.338 220.527,233.505 222.5,234C 221.692,234.308 221.025,234.808 220.5,235.5C 221.14,241.387 222.307,241.72 224,236.5C 225.254,240.111 224.088,241.611 220.5,241C 219.251,238.021 217.584,237.854 215.5,240.5C 214.833,240.333 214.167,240.167 213.5,240C 213.056,238.467 212.723,236.967 212.5,235.5C 211.534,237.396 211.201,239.396 211.5,241.5C 215.756,240.454 218.422,241.954 219.5,246C 218.43,247.709 217.097,249.209 215.5,250.5C 218.1,253.041 218.1,255.541 215.5,258C 214.216,258.684 213.049,258.517 212,257.5C 210.209,258.912 209.042,260.745 208.5,263C 204.707,264.052 202.707,262.552 202.5,258.5C 199.959,261.1 197.459,261.1 195,258.5C 195.152,256.481 195.652,254.481 196.5,252.5C 191.672,252.615 190.339,250.448 192.5,246C 193.938,245.781 195.271,245.281 196.5,244.5C 193.433,240.871 194.266,238.537 199,237.5C 200.482,239.112 202.315,240.112 204.5,240.5C 206.683,237.086 208.683,233.419 210.5,229.5C 208.745,223.721 210.745,222.054 216.5,224.5C 216.5,223.167 216.5,221.833 216.5,220.5C 219.408,220.262 221.742,221.262 223.5,223.5C 231.587,217.344 239.42,210.011 247,201.5C 247.872,198.639 249.038,195.972 250.5,193.5 Z"/></g>
<g><path style="opacity:1" fill="#e31e2c" d="M 331.5,270.5 C 338.358,271.472 344.025,274.639 348.5,280C 355.346,282.856 359.179,288.023 360,295.5C 361.039,296.71 362.206,297.71 363.5,298.5C 363.5,300.167 363.5,301.833 363.5,303.5C 363.5,470.833 363.5,638.167 363.5,805.5C 243.5,805.5 123.5,805.5 3.5,805.5C 3.5,650.5 3.5,495.5 3.5,340.5C 3.5,338.167 3.5,335.833 3.5,333.5C 6.15048,324.217 10.1505,315.551 15.5,307.5C 16.2389,307.631 16.9056,307.464 17.5,307C 19.5977,304.146 21.931,301.479 24.5,299C 30.5,295.333 36.5,291.667 42.5,288C 69.1616,280 94.1616,283.5 117.5,298.5C 120.287,300.227 123.287,301.394 126.5,302C 130.305,305.116 134.305,307.95 138.5,310.5C 144.032,311.516 149.032,313.516 153.5,316.5C 153.881,317.931 154.881,318.764 156.5,319C 177.438,324.415 198.438,324.748 219.5,320C 225.328,316.479 230.995,312.812 236.5,309C 244.837,300.33 253.503,291.997 262.5,284C 271.87,278.983 281.537,274.483 291.5,270.5C 295.377,269.803 299.21,269.136 303,268.5C 312.537,268.477 322.037,269.144 331.5,270.5 Z"/></g>
<g><path style="opacity:1" fill="#b82028" d="M 363.5,296.5 C 363.5,297.167 363.5,297.833 363.5,298.5C 362.206,297.71 361.039,296.71 360,295.5C 359.179,288.023 355.346,282.856 348.5,280C 344.025,274.639 338.358,271.472 331.5,270.5C 328.802,268.828 325.802,267.661 322.5,267C 312.464,266.244 302.464,266.577 292.5,268C 287.045,270.775 281.378,272.775 275.5,274C 270.956,275.461 266.956,277.794 263.5,281C 251.362,293.481 238.362,304.815 224.5,315C 219.831,315.888 215.497,317.555 211.5,320C 191.897,322.856 172.564,321.69 153.5,316.5C 149.032,313.516 144.032,311.516 138.5,310.5C 134.305,307.95 130.305,305.116 126.5,302C 123.287,301.394 120.287,300.227 117.5,298.5C 94.1616,283.5 69.1616,280 42.5,288C 36.5,291.667 30.5,295.333 24.5,299C 21.931,301.479 19.5977,304.146 17.5,307C 16.9056,307.464 16.2389,307.631 15.5,307.5C 22.0949,298.072 30.4283,290.572 40.5,285C 61.717,277.222 82.717,277.888 103.5,287C 115.99,293.078 128.323,299.411 140.5,306C 153.768,312.484 167.768,316.484 182.5,318C 198.431,319.614 213.431,316.614 227.5,309C 237.131,301.038 246.464,292.704 255.5,284C 261.313,278.925 267.646,274.592 274.5,271C 285.217,264.983 296.717,261.816 309,261.5C 334.756,261.819 352.922,273.485 363.5,296.5 Z"/></g>
<g><path style="opacity:1" fill="#d31d2a" d="M 331.5,270.5 C 322.037,269.144 312.537,268.477 303,268.5C 299.21,269.136 295.377,269.803 291.5,270.5C 281.537,274.483 271.87,278.983 262.5,284C 253.503,291.997 244.837,300.33 236.5,309C 230.995,312.812 225.328,316.479 219.5,320C 198.438,324.748 177.438,324.415 156.5,319C 154.881,318.764 153.881,317.931 153.5,316.5C 172.564,321.69 191.897,322.856 211.5,320C 215.497,317.555 219.831,315.888 224.5,315C 238.362,304.815 251.362,293.481 263.5,281C 266.956,277.794 270.956,275.461 275.5,274C 281.378,272.775 287.045,270.775 292.5,268C 302.464,266.577 312.464,266.244 322.5,267C 325.802,267.661 328.802,268.828 331.5,270.5 Z"/></g>
</svg>
