<?xml version="1.0" encoding="UTF-8"?>
<!DOCTYPE svg PUBLIC "-//W3C//DTD SVG 1.1//EN" "http://www.w3.org/Graphics/SVG/1.1/DTD/svg11.dtd">
<svg xmlns="http://www.w3.org/2000/svg" version="1.1" width="151px" height="192px" style="shape-rendering:geometricPrecision; text-rendering:geometricPrecision; image-rendering:optimizeQuality; fill-rule:evenodd; clip-rule:evenodd" xmlns:xlink="http://www.w3.org/1999/xlink">
<g><path style="opacity:0.992" fill="#fddaa5" d="M 52.5,-0.5 C 57.1667,-0.5 61.8333,-0.5 66.5,-0.5C 69.5389,1.45618 72.3722,3.78951 75,6.5C 77.8249,3.52399 80.9915,1.19065 84.5,-0.5C 85.5,-0.5 86.5,-0.5 87.5,-0.5C 98.8715,4.24934 104.205,12.916 103.5,25.5C 119.998,24.6597 126.998,32.3264 124.5,48.5C 135.779,50.4563 140.445,57.123 138.5,68.5C 141.167,68.5 143.833,68.5 146.5,68.5C 98.5977,69.83 50.5977,69.83 2.5,68.5C 0.430826,55.6742 5.43083,47.0075 17.5,42.5C 15.4587,26.1957 22.792,17.8624 39.5,17.5C 40.462,8.85606 44.7954,2.85606 52.5,-0.5 Z"/></g>
<g><path style="opacity:0.991" fill="#fece86" d="M 87.5,-0.5 C 90.8333,-0.5 94.1667,-0.5 97.5,-0.5C 105.23,2.92937 109.563,8.92937 110.5,17.5C 127.481,17.966 134.814,26.466 132.5,43C 144.284,47.3886 149.284,55.8886 147.5,68.5C 147.167,68.5 146.833,68.5 146.5,68.5C 143.833,68.5 141.167,68.5 138.5,68.5C 140.445,57.123 135.779,50.4563 124.5,48.5C 126.998,32.3264 119.998,24.6597 103.5,25.5C 104.205,12.916 98.8715,4.24934 87.5,-0.5 Z"/></g>
<g><path style="opacity:1" fill="#fec269" d="M 106.5,30.5 C 117.333,29.1737 122.5,33.8404 122,44.5C 120.867,46.2112 119.367,46.7112 117.5,46C 117.187,38.6878 113.353,35.1878 106,35.5C 105.36,33.735 105.527,32.0683 106.5,30.5 Z"/></g>
<g><path style="opacity:1" fill="#fec165" d="M 80.5,33.5 C 82.4557,35.9246 84.6224,38.2579 87,40.5C 88.0793,43.0627 88.5793,45.7294 88.5,48.5C 96.9922,47.9943 100.659,51.9943 99.5,60.5C 103.964,61.2976 106.297,63.9642 106.5,68.5C 83.5,68.5 60.5,68.5 37.5,68.5C 36.7449,62.6746 39.0782,58.6746 44.5,56.5C 44.5348,47.7985 48.8682,43.4651 57.5,43.5C 58.0717,36.1013 62.0717,32.9346 69.5,34C 71.5873,34.7922 73.4207,35.9588 75,37.5C 76.7742,36.035 78.6075,34.7017 80.5,33.5 Z"/></g>
<g><path style="opacity:1" fill="#fea81b" d="M 80.5,33.5 C 87.9157,32.9257 91.9157,36.2591 92.5,43.5C 99.5143,43.016 103.848,46.1826 105.5,53C 105.415,54.1074 105.081,55.1074 104.5,56C 110.578,57.9904 113.245,62.1571 112.5,68.5C 110.5,68.5 108.5,68.5 106.5,68.5C 106.297,63.9642 103.964,61.2976 99.5,60.5C 100.659,51.9943 96.9922,47.9943 88.5,48.5C 88.5793,45.7294 88.0793,43.0627 87,40.5C 84.6224,38.2579 82.4557,35.9246 80.5,33.5 Z"/></g>
<g><path style="opacity:1" fill="#fed9a3" d="M 66.5,47.5 C 68.8568,47.3367 71.1902,47.5034 73.5,48C 76.3463,48.8793 77.013,50.5459 75.5,53C 69.0751,51.6909 65.5751,54.1909 65,60.5C 63.6667,61.8333 62.3333,61.8333 61,60.5C 59.5708,54.7001 61.4041,50.3668 66.5,47.5 Z"/></g>
<g><path style="opacity:0.998" fill="#e2dfe0" d="M -0.5,68.5 C 0.5,68.5 1.5,68.5 2.5,68.5C 50.5977,69.83 98.5977,69.83 146.5,68.5C 146.833,68.5 147.167,68.5 147.5,68.5C 148.5,68.5 149.5,68.5 150.5,68.5C 150.5,75.1667 150.5,81.8333 150.5,88.5C 147.833,88.5 145.167,88.5 142.5,88.5C 138.833,88.5 135.167,88.5 131.5,88.5C 126.167,88.5 120.833,88.5 115.5,88.5C 107.167,88.5 98.8333,88.5 90.5,88.5C 90.8229,94.69 90.4896,100.69 89.5,106.5C 89.5,100.5 89.5,94.5 89.5,88.5C 79.8333,88.5 70.1667,88.5 60.5,88.5C 60.5,93.8333 60.5,99.1667 60.5,104.5C 59.5119,99.3595 59.1786,94.0262 59.5,88.5C 51.1667,88.5 42.8333,88.5 34.5,88.5C 25.5,88.5 16.5,88.5 7.5,88.5C 4.83333,88.5 2.16667,88.5 -0.5,88.5C -0.5,81.8333 -0.5,75.1667 -0.5,68.5 Z"/></g>
<g><path style="opacity:1" fill="#e4232f" d="M 7.5,88.5 C 16.5,88.5 25.5,88.5 34.5,88.5C 36.7371,122.82 38.7371,157.153 40.5,191.5C 33.8333,191.5 27.1667,191.5 20.5,191.5C 20.3146,189.804 19.4813,188.471 18,187.5C 14.5447,154.483 11.0447,121.483 7.5,88.5 Z"/></g>
<g><path style="opacity:1" fill="#f2edf0" d="M 34.5,88.5 C 42.8333,88.5 51.1667,88.5 59.5,88.5C 59.1786,94.0262 59.5119,99.3595 60.5,104.5C 60.5,108.833 60.5,113.167 60.5,117.5C 49.7326,126.996 47.566,138.329 54,151.5C 56.3789,155.38 59.5456,158.38 63.5,160.5C 63.5,170.833 63.5,181.167 63.5,191.5C 55.8333,191.5 48.1667,191.5 40.5,191.5C 38.7371,157.153 36.7371,122.82 34.5,88.5 Z"/></g>
<g><path style="opacity:1" fill="#e3242f" d="M 89.5,106.5 C 89.5,109.833 89.5,113.167 89.5,116.5C 79.5346,110.867 69.8679,111.2 60.5,117.5C 60.5,113.167 60.5,108.833 60.5,104.5C 60.5,99.1667 60.5,93.8333 60.5,88.5C 70.1667,88.5 79.8333,88.5 89.5,88.5C 89.5,94.5 89.5,100.5 89.5,106.5 Z"/></g>
<g><path style="opacity:1" fill="#f2edf0" d="M 115.5,88.5 C 113.433,122.831 111.433,157.165 109.5,191.5C 101.833,191.5 94.1667,191.5 86.5,191.5C 86.5,186.167 86.5,180.833 86.5,175.5C 87.4872,170.695 87.8205,165.695 87.5,160.5C 100.93,151.357 104.096,139.357 97,124.5C 94.9718,121.308 92.4718,118.641 89.5,116.5C 89.5,113.167 89.5,109.833 89.5,106.5C 90.4896,100.69 90.8229,94.69 90.5,88.5C 98.8333,88.5 107.167,88.5 115.5,88.5 Z"/></g>
<g><path style="opacity:1" fill="#e3212e" d="M 115.5,88.5 C 120.833,88.5 126.167,88.5 131.5,88.5C 128.746,120.866 125.579,153.199 122,185.5C 121.401,188.254 119.901,190.254 117.5,191.5C 114.833,191.5 112.167,191.5 109.5,191.5C 111.433,157.165 113.433,122.831 115.5,88.5 Z"/></g>
<g><path style="opacity:0.999" fill="#d3192e" d="M 131.5,88.5 C 135.167,88.5 138.833,88.5 142.5,88.5C 138.955,121.483 135.455,154.483 132,187.5C 130.968,189.027 129.801,190.36 128.5,191.5C 124.833,191.5 121.167,191.5 117.5,191.5C 119.901,190.254 121.401,188.254 122,185.5C 125.579,153.199 128.746,120.866 131.5,88.5 Z"/></g>
<g><path style="opacity:1" fill="#241c16" d="M 89.5,116.5 C 92.4718,118.641 94.9718,121.308 97,124.5C 104.096,139.357 100.93,151.357 87.5,160.5C 86.5084,160.328 85.8417,160.662 85.5,161.5C 78.0005,164.311 70.6672,163.978 63.5,160.5C 59.5456,158.38 56.3789,155.38 54,151.5C 47.566,138.329 49.7326,126.996 60.5,117.5C 69.8679,111.2 79.5346,110.867 89.5,116.5 Z"/></g>
<g><path style="opacity:1" fill="#e1af43" d="M 69.5,114.5 C 83.0977,112.712 92.5977,118.045 98,130.5C 100.505,151.993 91.0053,162.159 69.5,161C 55.458,155.414 49.958,145.247 53,130.5C 56.4377,122.893 61.9377,117.56 69.5,114.5 Z"/></g>
<g><path style="opacity:1" fill="#67471a" d="M 59.5,125.5 C 59.7148,127.179 59.0481,128.179 57.5,128.5C 57.427,126.973 58.0937,125.973 59.5,125.5 Z"/></g>
<g><path style="opacity:1" fill="#e5992e" d="M 78.5,117.5 C 76.8008,117.34 75.1341,117.506 73.5,118C 92.102,120.712 98.2686,130.878 92,148.5C 84.8385,157.442 76.0051,159.609 65.5,155C 56.7441,148.467 54.0774,139.967 57.5,129.5C 57.5,129.167 57.5,128.833 57.5,128.5C 59.0481,128.179 59.7148,127.179 59.5,125.5C 61.7317,123.037 64.3984,121.037 67.5,119.5C 68.791,119.737 69.791,119.404 70.5,118.5C 72.0291,117.653 73.6958,116.986 75.5,116.5C 76.7261,116.52 77.7261,116.853 78.5,117.5 Z"/></g>
<g><path style="opacity:1" fill="#2a200e" d="M 70.5,118.5 C 69.791,119.404 68.791,119.737 67.5,119.5C 68.221,117.618 69.221,117.285 70.5,118.5 Z"/></g>
<g><path style="opacity:1" fill="#1c1710" d="M 68.5,121.5 C 70.1667,121.5 71.8333,121.5 73.5,121.5C 74.1667,125.5 74.8333,125.5 75.5,121.5C 77.1667,121.5 78.8333,121.5 80.5,121.5C 80.3505,122.552 80.5172,123.552 81,124.5C 86.8323,127.318 87.9989,131.485 84.5,137C 87.3939,139.909 88.2272,143.409 87,147.5C 85.5867,149.414 83.7534,150.747 81.5,151.5C 80.6143,152.325 80.281,153.325 80.5,154.5C 78.8333,154.5 77.1667,154.5 75.5,154.5C 74.8333,150.5 74.1667,150.5 73.5,154.5C 71.8333,154.5 70.1667,154.5 68.5,154.5C 68.5,153.5 68.5,152.5 68.5,151.5C 67.1667,151.5 65.8333,151.5 64.5,151.5C 65.4336,147.072 66.1003,142.572 66.5,138C 66.1003,133.428 65.4336,128.928 64.5,124.5C 65.8333,124.5 67.1667,124.5 68.5,124.5C 68.5,123.5 68.5,122.5 68.5,121.5 Z"/></g>
<g><path style="opacity:1" fill="#ddc890" d="M 72.5,125.5 C 73.9187,126.451 75.5853,126.784 77.5,126.5C 77.5,125.167 77.5,123.833 77.5,122.5C 78.5703,125.49 80.737,127.49 84,128.5C 84.7982,131.711 84.2982,134.711 82.5,137.5C 87.3192,140.943 87.6525,144.777 83.5,149C 80.8094,148.946 78.9761,150.113 78,152.5C 77.5172,151.552 77.3505,150.552 77.5,149.5C 75.8333,149.5 74.1667,149.5 72.5,149.5C 71.8333,154.833 71.1667,154.833 70.5,149.5C 69.1266,149.657 67.7932,149.49 66.5,149C 67.8333,141.667 67.8333,134.333 66.5,127C 67.7932,126.51 69.1266,126.343 70.5,126.5C 70.238,125.022 70.5713,123.689 71.5,122.5C 72.3857,123.325 72.719,124.325 72.5,125.5 Z"/></g>
<g><path style="opacity:1" fill="#262016" d="M 70.5,127.5 C 73.5184,127.335 76.5184,127.502 79.5,128C 83.5,130.667 83.5,133.333 79.5,136C 76.5184,136.498 73.5184,136.665 70.5,136.5C 70.5,133.5 70.5,130.5 70.5,127.5 Z"/></g>
<g><path style="opacity:1" fill="#61583f" d="M 77.5,122.5 C 77.5,123.833 77.5,125.167 77.5,126.5C 75.5853,126.784 73.9187,126.451 72.5,125.5C 73.8333,125.5 75.1667,125.5 76.5,125.5C 76.2627,124.209 76.596,123.209 77.5,122.5 Z"/></g>
<g><path style="opacity:1" fill="#22190b" d="M 78.5,117.5 C 94.7973,122.094 99.964,132.427 94,148.5C 87.7577,157.363 79.2577,160.529 68.5,158C 57.4029,153.069 52.9029,144.569 55,132.5C 55.2355,130.881 56.0689,129.881 57.5,129.5C 54.0774,139.967 56.7441,148.467 65.5,155C 76.0051,159.609 84.8385,157.442 92,148.5C 98.2686,130.878 92.102,120.712 73.5,118C 75.1341,117.506 76.8008,117.34 78.5,117.5 Z"/></g>
<g><path style="opacity:1" fill="#282319" d="M 70.5,138.5 C 73.8499,138.335 77.1832,138.502 80.5,139C 84.4687,142.124 84.4687,145.124 80.5,148C 77.1832,148.498 73.8499,148.665 70.5,148.5C 70.5,145.167 70.5,141.833 70.5,138.5 Z"/></g>
<g><path style="opacity:1" fill="#e79b2e" d="M 72.5,140.5 C 75.1873,140.336 77.854,140.503 80.5,141C 82.5268,142.396 82.8602,144.062 81.5,146C 78.5184,146.498 75.5184,146.665 72.5,146.5C 72.5,144.5 72.5,142.5 72.5,140.5 Z"/></g>
<g><path style="opacity:1" fill="#f0a030" d="M 72.5,129.5 C 74.8568,129.337 77.1902,129.503 79.5,130C 80.8333,131.333 80.8333,132.667 79.5,134C 77.1902,134.497 74.8568,134.663 72.5,134.5C 72.5,132.833 72.5,131.167 72.5,129.5 Z"/></g>
<g><path style="opacity:1" fill="#e3242f" d="M 63.5,160.5 C 70.6672,163.978 78.0005,164.311 85.5,161.5C 86.4861,165.97 86.8195,170.637 86.5,175.5C 86.5,180.833 86.5,186.167 86.5,191.5C 78.8333,191.5 71.1667,191.5 63.5,191.5C 63.5,181.167 63.5,170.833 63.5,160.5 Z"/></g>
<g><path style="opacity:1" fill="#eeb6bb" d="M 85.5,161.5 C 85.8417,160.662 86.5084,160.328 87.5,160.5C 87.8205,165.695 87.4872,170.695 86.5,175.5C 86.8195,170.637 86.4861,165.97 85.5,161.5 Z"/></g>
</svg>
